<svg width="44.000000" height="44.000000" viewBox="0 0 44 44" fill="none" xmlns="http://www.w3.org/2000/svg" xmlns:xlink="http://www.w3.org/1999/xlink">
	<desc>
			Created with Pixso.
	</desc>
	<defs>
		<linearGradient x1="22.000000" y1="0.000000" x2="22.000000" y2="44.000000" id="paint_linear_11_61_0" gradientUnits="userSpaceOnUse">
			<stop stop-color="#FFFFFF"/>
			<stop offset="1.000000" stop-color="#FFFFFF" stop-opacity="0.000000"/>
		</linearGradient>
	</defs>
	<g opacity="0.400000" style="mix-blend-mode:normal">
		<rect id="Rectangle 1327" rx="10.000000" width="44.000000" height="44.000000" fill="#FFFFFF" fill-opacity="0.080000"/>
		<rect id="Rectangle 1327" x="0.500000" y="0.500000" rx="10.000000" width="43.000000" height="43.000000" stroke="url(#paint_linear_11_61_0)" stroke-opacity="1.000000" stroke-width="1.000000"/>
	</g>
	<rect id="Iconly/Bold/Call" rx="-0.500000" width="23.000000" height="23.000000" transform="translate(10.500000 10.500000)" fill="#FFFFFF" fill-opacity="0"/>
	<path id="Call" d="M28.16 24.37C27.49 24.23 26.96 24.54 26.49 24.81C26.01 25.1 25.09 25.84 24.56 25.65C21.88 24.54 19.35 22.19 18.25 19.49C18.06 18.95 18.8 18.03 19.08 17.54C19.35 17.07 19.65 16.53 19.51 15.86C19.39 15.25 17.76 13.18 17.18 12.61C16.8 12.24 16.42 12.03 16.02 12C14.52 11.93 12.84 13.94 12.54 14.41C11.81 15.44 11.81 16.8 12.56 18.45C14.35 22.87 21.14 29.56 25.59 31.42C26.41 31.8 27.16 32 27.83 32C28.49 32 29.08 31.81 29.58 31.45C29.96 31.23 32.05 29.47 31.99 27.93C31.96 27.53 31.76 27.14 31.39 26.76C30.82 26.18 28.77 24.5 28.16 24.37Z" fill="#FFFFFF" fill-opacity="1.000000" fill-rule="nonzero"/>
</svg>
